<svg xmlns="http://www.w3.org/2000/svg" width="221.286" height="127.704" viewBox="0 0 221.286 127.704"><defs><style>.a{fill:#65000a;fill-rule:evenodd;}.b{fill:#272727;}</style></defs><g transform="translate(0.005 0.005)"><g transform="translate(-0.005 -0.005)"><path class="a" d="M48.691,13.953S53.928,10,57.838,23.536a23.222,23.222,0,0,1,.6,7.393,29,29,0,0,1-2.036,7.65S51.267,47.94,46.133,51.474s-8.223,2.293-8.223,2.293-3.012-1.343-1.968-2.918,3.26.8,3.26.8.351.351.616-.188-.65-1.617-.65-1.617a5.9,5.9,0,0,0-2.7-1.66c-2.4-.736-5.134-.248-6.315,2.225a4.98,4.98,0,0,0,.145,4.081c.856,2.1,3.08,2.866,5.314,3.063,5.536.479,9.412-1.609,13.691-5.057a30.153,30.153,0,0,0,5.083-5.177,38.806,38.806,0,0,0,6.323-13.365A26.525,26.525,0,0,0,59.567,17.53S56.581,10.06,48.914,10s-6.375,5.237-6.375,5.237,1.549,4.946,4.809,4.672,2.567-2.019,2.567-2.019,0-.719-1.6-1.386.4-2.507.4-2.507Z" transform="translate(-4.295 -1.439)"/><path class="a" d="M51.433,55.162s-7.615,9.515-22.555,13.1-19.68-.5-19.68-.5S4.064,63.924,8.06,60.8a9.823,9.823,0,0,1,2.131-1.206,5.065,5.065,0,0,1,3.354.068c.642.188,1.352.428,1.395,1.258a.774.774,0,0,1-.513.719,1.634,1.634,0,0,1-1.275-.145c-.77-.616-1.018.163-.856.856a2.079,2.079,0,0,0,.856,1.1c1.36.924,3.183-.411,3.183-.411a3.324,3.324,0,0,0,.06-5.331c-3.08-2.841-9-2.062-9-2.062S-1.164,56.685.128,64.66s12.347,8.95,12.347,8.95,12.1,2.1,26.1-6.067c0,0-.257.744-2.148,2.036-1,.685-1.848,1.215-2.447,1.566-.376.222-1.771.856-1.189,1.523.4.453,2.8-.445,2.8-.445S44,68.417,48.772,62.239s4.039-7.564,4.039-7.564-.3-.856-1.335.488Z" transform="translate(0.005 -7.849)"/><path class="a" d="M68.55,57.421s2.832-9.01,10.8-11.9c0,0-3.782,3.842-3.979,4.441,0,0,8.266-2.045,9.66-3.885,0,0,1.994-1.874.171-3.423,0,0-1.266-.924-.856-1.215s2.011.342,2.011.342S90.994,43.4,88.8,47.23s-13.348,6.845-13.348,6.845A25.07,25.07,0,0,0,68.61,57.4Z" transform="translate(-9.89 -5.966)"/><path class="a" d="M63.37,66.971s.993-7.222,10.507-11.252c0,0,12.724-3.688,14.418-6.229a8.788,8.788,0,0,1-3.782,5.784s19.466.248,23.454-7.025-4.535-6.127-4.535-6.127-3.14,1.07-2.242,3.286c0,0,.351.856,0,1s-1.275-.428-1.275-.428-3.286-2.635,1.643-6.127a9.292,9.292,0,0,1,9.712-.7s6.127,2.943,2.439,10.362-12.835,7.7-12.835,7.7L83.991,58.234s-13.742.856-20.621,8.736Z" transform="translate(-9.142 -5.496)"/><path class="a" d="M79.338,18.4s3.773,1.9,1.087,3.987S75.29,20,75.29,20A5.048,5.048,0,0,1,75.65,15.4c1.463-2.122.667-6.674.667-6.674s-2.242-5.733-6.845-3.765c0,0-3.063,2.49-1.549,8.249s2.49,10.918,2.49,10.918a38.12,38.12,0,0,1,.513,5.382c.077,4.193-.856,6.272-2.216,10-1.087,3.055-2.9,7.085-3.619,8.557s-9.814,20.964-9.814,20.964S49.7,83.375,50.194,96.227s4.484,19.287,4.484,19.287,3.483,6.845,8.933,8.274c1.5.4,3.063.625,4.073-.779.462-.642.659-1.609-.231-2.978,0,0-1.044-1.42-2.319-1.224s-.975-1.318-.975-1.318.274-1.968,2.841-1.472a8.214,8.214,0,0,1,4.133,2.19,5.014,5.014,0,0,1,1.147,6.52c-2.242,3.893-6.974,2.841-6.974,2.841s-8.266-1.044-13.04-8.214-5.776-11.406-5.776-11.406S43.7,98.254,45.094,88.988c.488-3.294,1.112-6.238,1.711-8.668,1.515-6.2,2.567-8.257,5.331-13.922,2.1-4.355,4.5-9.267,4.852-9.729.659-.856,3.791-8.018,6.084-14.093a38.343,38.343,0,0,0,3.166-13.34c.051-3.859-1.874-12.407-3.371-15.4a13.639,13.639,0,0,1-1.343-7.119S62.464-.2,71.979,0s8.967,13.75,8.967,13.75A6.606,6.606,0,0,1,79.338,18.4Z" transform="translate(-6.448 0.005)"/><path class="a" d="M50.3,70.2s-.5-.667-3.038,1.395-11.885,7.615-18.1,9.618l-2.216.531c-.265.06-1.061.145-1.189.428s.445.625,5.57.2c7.393-.625,13.691-5.485,13.691-5.485s.608-.359.231.488-1.711,2.969-1.711,2.969-2.464,4.7-.642,8.009a38.71,38.71,0,0,1,5.485-12.835s3.08-4.278,1.925-5.279Z" transform="translate(-3.711 -10.114)"/><path class="a" d="M81.873,69.475s-.65-5.374-7.025-4.424S62.6,73.017,62.6,73.017a48.088,48.088,0,0,0-6.717,13.536c-2.242,7.573-1.489,16.882-1.489,16.882s.7,18.029,13.545,18.328c0,0,7.419.753,10.063-7.821,0,0,1.882-7.47-2.892-10.268a8.463,8.463,0,0,0-3.534-1.206c-3.14-.282-5.065,1.129-5.724,4.09a4.612,4.612,0,0,0,.642,3.688s1.07.856.856-.924a2.764,2.764,0,0,1,1.395-2.618s3.3-2.011,4.278,2.165a7.179,7.179,0,0,1-1.566,6.674s-3.936,4.886-8.214-.856-7.076-14.829-2.884-29.777S74.763,69.15,74.763,69.15s3.132-.2,2.567,3.423-3.243,2.242-3.243,2.242-1.78-1.891-2.507-.625.573,2.935.573,2.935,1.891,2.567,6.571.231c0,0,3.859-2.088,3.132-7.846Z" transform="translate(-7.829 -9.369)"/><path class="b" d="M98.64,84.834h-8.4L94.43,73.462ZM84,93.262h3.26L89.339,87.4H99.607l2.079,5.861H104.9L96.193,70.416H92.685Zm31.249-20.3a4.663,4.663,0,0,1,3.337,1.112,4.86,4.86,0,0,1,0,6.349,4.672,4.672,0,0,1-3.337,1.121h-3.885V72.983Zm-6.974,20.3h3.089V84.081h3.885a8.626,8.626,0,0,0,5.81-1.711,6.46,6.46,0,0,0,1.968-5.134,6.426,6.426,0,0,0-1.968-5.083c-1.309-1.164-3.251-1.711-5.81-1.711h-6.974V93.288Zm32.652-12.689a7.124,7.124,0,0,0-.933-8.522c-1.292-1.1-3.234-1.634-5.844-1.634h-6.974V93.262h3.029V83.6h3.423a4.989,4.989,0,0,1,2.9.753,8.18,8.18,0,0,1,2.2,3.046l2.926,5.861h3.32l-3.14-6.246a14.546,14.546,0,0,0-1.891-3.029,4.526,4.526,0,0,0-1.934-1.438A5.185,5.185,0,0,0,140.927,80.573Zm-6.777-7.615a4.954,4.954,0,0,1,3.423,1.01,4.612,4.612,0,0,1,0,6.067,4.911,4.911,0,0,1-3.423,1.035h-3.945V72.957Zm14.8,20.3h3.089V70.416h-3.089Zm19.526-22.974A19.6,19.6,0,0,0,165.2,70a9.019,9.019,0,0,0-5.9,1.711,5.827,5.827,0,0,0-2.139,4.775,5.365,5.365,0,0,0,1.549,4.09,10.122,10.122,0,0,0,5.006,2.156l1.882.368a7.136,7.136,0,0,1,3.423,1.42,3.816,3.816,0,0,1-.411,5.6,6.845,6.845,0,0,1-4.081,1.044,12.381,12.381,0,0,1-3.551-.539,18.328,18.328,0,0,1-3.688-1.592v3.209a25.822,25.822,0,0,0,3.722,1.1,17.225,17.225,0,0,0,3.423.368q4.278,0,6.529-1.711a6.845,6.845,0,0,0,.582-9.481,9.489,9.489,0,0,0-5.134-2.319l-1.865-.385a7.881,7.881,0,0,1-3.423-1.249,2.824,2.824,0,0,1-.916-2.285,3.234,3.234,0,0,1,1.369-2.789,6.674,6.674,0,0,1,3.9-.975,11.842,11.842,0,0,1,3.012.411,18.544,18.544,0,0,1,3.32,1.258V71.16a24.42,24.42,0,0,0-3.423-.856Zm23.317.257A13.485,13.485,0,0,0,187.937,70a10.671,10.671,0,0,0-8.18,3.174q-2.978,3.174-2.978,8.693,0,5.493,2.978,8.668a10.671,10.671,0,0,0,8.18,3.174,13.143,13.143,0,0,0,3.833-.548,12.578,12.578,0,0,0,3.423-1.66V88.274a10.884,10.884,0,0,1-3.38,2.173,9.883,9.883,0,0,1-3.756.719,7.5,7.5,0,0,1-5.99-2.4c-1.386-1.592-2.079-3.9-2.079-6.905s.693-5.331,2.079-6.931a7.538,7.538,0,0,1,5.99-2.4,9.883,9.883,0,0,1,3.756.719,10.884,10.884,0,0,1,3.328,2.173V72.17a12.228,12.228,0,0,0-3.423-1.626Zm22.795,4.475a10.9,10.9,0,0,1,1.959,6.845,10.9,10.9,0,0,1-1.959,6.845,6.931,6.931,0,0,1-10.687,0,10.721,10.721,0,0,1-1.985-6.845,10.79,10.79,0,0,1,1.985-6.845,6.948,6.948,0,0,1,10.687,0Zm-13.04-1.8a12.463,12.463,0,0,0-2.892,8.642,12.656,12.656,0,0,0,2.858,8.668,10.8,10.8,0,0,0,15.4,0,12.452,12.452,0,0,0,2.875-8.616,12.55,12.55,0,0,0-2.875-8.642,10.781,10.781,0,0,0-15.4,0Z" transform="translate(-12.12 -10.097)"/><g transform="translate(91.936 86.913)"><path class="b" d="M122.465,102.118a13.245,13.245,0,0,0-3.868-.548,10.677,10.677,0,0,0-8.172,3.174q-2.986,3.174-2.986,8.685c0,3.671.993,6.554,2.986,8.676a10.661,10.661,0,0,0,8.172,3.174,13.349,13.349,0,0,0,3.833-.548,12.629,12.629,0,0,0,3.423-1.66v-3.226a11.123,11.123,0,0,1-3.328,2.173,9.883,9.883,0,0,1-3.756.719,7.521,7.521,0,0,1-5.99-2.4q-2.079-2.4-2.079-6.914t2.079-6.922a7.521,7.521,0,0,1,5.99-2.4,9.882,9.882,0,0,1,3.756.719A11.124,11.124,0,0,1,125.854,107v-3.26a12.339,12.339,0,0,0-3.423-1.626Zm8.18,22.718h3.089V113.917h11.235V124.8h3.089V101.955h-3.089v9.4H133.717v-9.361h-3.089v22.846Zm23.214-8.557q0,4.467,2.216,6.743t6.537,2.285q4.33,0,6.529-2.285t2.216-6.743V101.989h-3.106v13.879q0,3.671-1.335,5.288a6.468,6.468,0,0,1-8.557,0c-.856-1.078-1.335-2.841-1.335-5.288V101.989h-3.106v14.264Zm37.05-4.107a7.124,7.124,0,0,0-.933-8.522c-1.292-1.1-3.234-1.634-5.844-1.634h-6.991v22.846h3.089v-9.686h3.363a4.989,4.989,0,0,1,2.9.753,8.1,8.1,0,0,1,2.2,3.046l2.926,5.861h3.32l-3.14-6.246a14.546,14.546,0,0,0-1.891-3.029,4.527,4.527,0,0,0-1.934-1.437,5.185,5.185,0,0,0,2.918-1.977Zm-6.794-7.667a4.954,4.954,0,0,1,3.38,1.018,3.876,3.876,0,0,1,1.138,3.029,3.927,3.927,0,0,1-1.138,3.055,4.911,4.911,0,0,1-3.38,1.027h-3.885V104.5Z" transform="translate(-107.44 -101.57)"/><path class="b" d="M226.107,102.118a13.152,13.152,0,0,0-3.859-.548,10.677,10.677,0,0,0-8.172,3.174q-2.986,3.174-2.986,8.685c0,3.671.993,6.554,2.986,8.676a10.661,10.661,0,0,0,8.172,3.174,13.391,13.391,0,0,0,3.833-.548,12.578,12.578,0,0,0,3.423-1.66v-3.226a10.884,10.884,0,0,1-3.328,2.173,9.848,9.848,0,0,1-3.756.719,7.486,7.486,0,0,1-5.99-2.4q-2.071-2.4-2.079-6.914t2.079-6.922a7.465,7.465,0,0,1,5.99-2.4,9.849,9.849,0,0,1,3.756.719A10.884,10.884,0,0,1,229.5,107v-3.26a12.227,12.227,0,0,0-3.423-1.626Zm8.18,22.718h3.1V113.917h11.278V124.8h3.089V101.955h-3.089v9.4H237.384v-9.361h-3.1Z" transform="translate(-122.401 -101.57)"/></g></g></g></svg>